<?xml version="1.0" standalone="no"?>
<!DOCTYPE svg PUBLIC "-//W3C//DTD SVG 20010904//EN"
 "http://www.w3.org/TR/2001/REC-SVG-20010904/DTD/svg10.dtd">
<svg version="1.0" xmlns="http://www.w3.org/2000/svg"
 width="256.000000pt" height="256.000000pt" viewBox="0 0 256.000000 256.000000"
 preserveAspectRatio="xMidYMid meet">
<metadata>
Created by potrace 1.14, written by Peter Selinger 2001-2017
</metadata>
<g transform="translate(0.000000,256.000000) scale(0.100000,-0.100000)"
fill="#000000" stroke="none">
<path d="M1490 2535 c0 -20 -5 -25 -25 -25 -24 0 -25 -3 -25 -55 0 -52 -1 -55
-25 -55 -25 0 -25 -1 -25 -80 l0 -80 -30 0 c-25 0 -30 -4 -30 -25 0 -23 -3
-25 -50 -25 -49 0 -50 -1 -50 -30 l0 -30 -135 0 -135 0 0 -25 0 -25 -105 0
-105 0 0 25 c0 21 -5 25 -30 25 -27 0 -30 3 -30 30 0 25 -4 30 -25 30 -20 0
-25 5 -25 25 l0 25 -105 0 -105 0 0 -295 0 -295 25 0 c20 0 25 -5 25 -25 0
-20 -5 -25 -25 -25 -20 0 -25 -5 -25 -25 0 -21 -5 -25 -30 -25 -27 0 -30 -3
-30 -30 0 -25 -4 -30 -25 -30 l-25 0 0 -105 0 -105 25 0 c24 0 25 -3 25 -55
l0 -55 55 0 55 0 0 -210 0 -210 25 0 c21 0 25 -5 25 -30 0 -27 3 -30 30 -30
25 0 30 -4 30 -25 0 -20 5 -25 25 -25 24 0 25 -3 25 -55 0 -52 -1 -55 -25 -55
-24 0 -25 -3 -25 -60 0 -57 1 -60 25 -60 23 0 25 -4 25 -45 0 -41 2 -45 25
-45 22 0 25 -4 25 -35 0 -32 2 -35 30 -35 28 0 30 -3 30 -35 l0 -35 80 0 80 0
0 -34 0 -35 425 -1 425 0 0 25 c0 23 3 25 50 25 47 0 50 2 50 25 0 24 3 25 55
25 54 0 55 0 55 30 0 30 1 30 58 31 31 1 67 1 79 1 16 -1 22 5 21 21 0 12 0
48 1 80 1 56 1 57 31 57 29 0 30 1 30 50 0 47 2 50 25 50 l25 0 0 135 0 135
-25 0 c-20 0 -25 5 -25 25 0 21 -5 25 -30 25 -30 0 -30 1 -30 55 0 54 0 55 30
55 l30 0 0 135 0 135 -30 0 -30 0 0 80 c0 79 0 80 -25 80 -25 0 -25 1 -25 80
0 79 0 80 -25 80 l-25 0 0 105 0 105 -30 0 -30 0 0 105 0 105 -25 0 c-25 0
-25 1 -25 80 0 79 0 80 -25 80 -24 0 -25 3 -25 56 l0 56 -33 -4 c-31 -3 -33
-2 -29 24 4 25 1 28 -22 28 -25 0 -26 2 -26 55 0 52 -1 55 -25 55 -20 0 -25 5
-25 25 0 21 -5 25 -30 25 -27 0 -30 3 -30 30 0 25 -4 30 -25 30 -20 0 -25 5
-25 25 0 24 -3 25 -55 25 -52 0 -55 -1 -55 -25z m370 -1089 c0 -2 -8 -10 -17
-17 -16 -13 -17 -12 -4 4 13 16 21 21 21 13z m65 -65 c3 -5 2 -12 -3 -15 -5
-3 -9 1 -9 9 0 17 3 19 12 6z m-315 -165 c0 -2 -8 -10 -17 -17 -16 -13 -17
-12 -4 4 13 16 21 21 21 13z m506 -918 c1 -10 -4 -15 -14 -14 -8 2 -16 10 -18
18 -1 10 4 15 14 14 8 -2 16 -10 18 -18z m-1001 -158 c0 -15 -32 -23 -41 -9
-3 5 -3 13 0 18 9 14 41 6 41 -9z"/>
<path d="M2113 225 c0 -8 4 -12 9 -9 5 3 6 10 3 15 -9 13 -12 11 -12 -6z"/>
<path d="M2086 182 c-3 -5 1 -9 9 -9 8 0 12 4 9 9 -3 4 -7 8 -9 8 -2 0 -6 -4
-9 -8z"/>
<path d="M2004 129 c-6 -10 6 -15 34 -15 12 1 22 5 22 11 0 11 -49 15 -56 4z"/>
</g>
</svg>
